<?xml version="1.0" encoding="UTF-8" standalone="no"?>
<!DOCTYPE svg PUBLIC "-//W3C//DTD SVG 1.1//EN"
 "http://www.w3.org/Graphics/SVG/1.1/DTD/svg11.dtd">
<!-- Generated by graphviz version 2.38.0 (20140413.2041)
 -->
<!-- Title: models_diagram Pages: 1 -->
<svg width="1014pt" height="209pt"
 viewBox="0.00 0.00 1013.55 209.00" xmlns="http://www.w3.org/2000/svg" xmlns:xlink="http://www.w3.org/1999/xlink">
<g id="graph0" class="graph" transform="scale(1 1) rotate(0) translate(4 205)">
<title>models_diagram</title>
<polygon fill="none" stroke="none" points="-4,4 -4,-205 1009.55,-205 1009.55,4 -4,4"/>
<!-- _diagram_info -->
<g id="node1" class="node"><title>_diagram_info</title>
<text text-anchor="start" x="8" y="-158.6" font-family="Times,serif" font-size="13.00">Models diagram</text>
<text text-anchor="start" x="8" y="-145.6" font-family="Times,serif" font-size="13.00">Date: Oct 27 2016 &#45; 21:37</text>
<text text-anchor="start" x="8" y="-132.6" font-family="Times,serif" font-size="13.00">Migration version: 20161028015231</text>
<text text-anchor="start" x="8" y="-119.6" font-family="Times,serif" font-size="13.00">Generated by RailRoady 1.5.2</text>
<text text-anchor="start" x="8" y="-106.6" font-family="Times,serif" font-size="13.00">http://railroady.prestonlee.com</text>
</g>
<!-- Category -->
<g id="node2" class="node"><title>Category</title>
<path fill="none" stroke="black" d="M237.825,-93.5C237.825,-93.5 461.55,-93.5 461.55,-93.5 467.55,-93.5 473.55,-99.5 473.55,-105.5 473.55,-105.5 473.55,-167.5 473.55,-167.5 473.55,-173.5 467.55,-179.5 461.55,-179.5 461.55,-179.5 237.825,-179.5 237.825,-179.5 231.825,-179.5 225.825,-173.5 225.825,-167.5 225.825,-167.5 225.825,-105.5 225.825,-105.5 225.825,-99.5 231.825,-93.5 237.825,-93.5"/>
<text text-anchor="middle" x="349.688" y="-164.3" font-family="Times,serif" font-size="14.00">Category</text>
<polyline fill="none" stroke="black" points="225.825,-157.5 473.55,-157.5 "/>
<text text-anchor="start" x="233.825" y="-142.3" font-family="Times,serif" font-size="14.00">id :integer</text>
<text text-anchor="start" x="233.825" y="-128.3" font-family="Times,serif" font-size="14.00">name :character varying</text>
<text text-anchor="start" x="233.825" y="-114.3" font-family="Times,serif" font-size="14.00">created_at :timestamp without time zone</text>
<text text-anchor="start" x="233.825" y="-100.3" font-family="Times,serif" font-size="14.00">updated_at :timestamp without time zone</text>
</g>
<!-- Inventory -->
<g id="node3" class="node"><title>Inventory</title>
<path fill="none" stroke="black" d="M503.825,-72.5C503.825,-72.5 727.55,-72.5 727.55,-72.5 733.55,-72.5 739.55,-78.5 739.55,-84.5 739.55,-84.5 739.55,-188.5 739.55,-188.5 739.55,-194.5 733.55,-200.5 727.55,-200.5 727.55,-200.5 503.825,-200.5 503.825,-200.5 497.825,-200.5 491.825,-194.5 491.825,-188.5 491.825,-188.5 491.825,-84.5 491.825,-84.5 491.825,-78.5 497.825,-72.5 503.825,-72.5"/>
<text text-anchor="middle" x="615.688" y="-185.3" font-family="Times,serif" font-size="14.00">Inventory</text>
<polyline fill="none" stroke="black" points="491.825,-178.5 739.55,-178.5 "/>
<text text-anchor="start" x="499.825" y="-163.3" font-family="Times,serif" font-size="14.00">id :integer</text>
<text text-anchor="start" x="499.825" y="-149.3" font-family="Times,serif" font-size="14.00">serial :character varying</text>
<text text-anchor="start" x="499.825" y="-135.3" font-family="Times,serif" font-size="14.00">size :integer</text>
<text text-anchor="start" x="499.825" y="-121.3" font-family="Times,serif" font-size="14.00">description :text</text>
<text text-anchor="start" x="499.825" y="-107.3" font-family="Times,serif" font-size="14.00">category_id :integer</text>
<text text-anchor="start" x="499.825" y="-93.3" font-family="Times,serif" font-size="14.00">created_at :timestamp without time zone</text>
<text text-anchor="start" x="499.825" y="-79.3" font-family="Times,serif" font-size="14.00">updated_at :timestamp without time zone</text>
</g>
<!-- Work -->
<g id="node5" class="node"><title>Work</title>
<ellipse fill="none" stroke="black" cx="748.688" cy="-18" rx="29.5766" ry="18"/>
<text text-anchor="middle" x="748.688" y="-13.8" font-family="Times,serif" font-size="14.00">Work</text>
</g>
<!-- Inventory&#45;&gt;Work -->
<g id="edge1" class="edge"><title>Inventory&#45;&gt;Work</title>
<path fill="none" stroke="#15b829" d="M693.942,-66.9544C705.819,-56.5508 717.179,-46.5998 726.442,-38.4862"/>
<ellipse fill="none" stroke="#15b829" cx="690.646" cy="-69.8408" rx="4.00002" ry="4.00002"/>
<ellipse fill="#15b829" stroke="#15b829" cx="729.491" cy="-35.8153" rx="4.00002" ry="4.00002"/>
</g>
<!-- User -->
<g id="node4" class="node"><title>User</title>
<path fill="none" stroke="black" d="M769.825,-86.5C769.825,-86.5 993.55,-86.5 993.55,-86.5 999.55,-86.5 1005.55,-92.5 1005.55,-98.5 1005.55,-98.5 1005.55,-174.5 1005.55,-174.5 1005.55,-180.5 999.55,-186.5 993.55,-186.5 993.55,-186.5 769.825,-186.5 769.825,-186.5 763.825,-186.5 757.825,-180.5 757.825,-174.5 757.825,-174.5 757.825,-98.5 757.825,-98.5 757.825,-92.5 763.825,-86.5 769.825,-86.5"/>
<text text-anchor="middle" x="881.688" y="-171.3" font-family="Times,serif" font-size="14.00">User</text>
<polyline fill="none" stroke="black" points="757.825,-164.5 1005.55,-164.5 "/>
<text text-anchor="start" x="765.825" y="-149.3" font-family="Times,serif" font-size="14.00">id :integer</text>
<text text-anchor="start" x="765.825" y="-135.3" font-family="Times,serif" font-size="14.00">name :character varying</text>
<text text-anchor="start" x="765.825" y="-121.3" font-family="Times,serif" font-size="14.00">email :character varying</text>
<text text-anchor="start" x="765.825" y="-107.3" font-family="Times,serif" font-size="14.00">created_at :timestamp without time zone</text>
<text text-anchor="start" x="765.825" y="-93.3" font-family="Times,serif" font-size="14.00">updated_at :timestamp without time zone</text>
</g>
<!-- User&#45;&gt;Work -->
<g id="edge2" class="edge"><title>User&#45;&gt;Work</title>
<path fill="none" stroke="#8419b5" d="M819.446,-80.9803C802.775,-66.3769 785.745,-51.4595 772.57,-39.9198"/>
<ellipse fill="none" stroke="#8419b5" cx="822.66" cy="-83.7955" rx="4.00002" ry="4.00002"/>
<polygon fill="#8419b5" stroke="#8419b5" points="772.426,-39.7932 767.869,-29.8191 768.665,-36.4987 764.904,-33.2042 764.904,-33.2042 764.904,-33.2042 768.665,-36.4987 761.939,-36.5892 772.426,-39.7932 772.426,-39.7932"/>
</g>
</g>
</svg>
