<?xml version="1.0" encoding="UTF-8" standalone="no"?>
<!DOCTYPE svg PUBLIC "-//W3C//DTD SVG 1.1//EN"
 "http://www.w3.org/Graphics/SVG/1.1/DTD/svg11.dtd">
<!-- Generated by graphviz version 2.38.0 (20140413.2041)
 -->
<!-- Title: models_diagram Pages: 1 -->
<svg width="497pt" height="153pt"
 viewBox="0.00 0.00 496.69 153.00" xmlns="http://www.w3.org/2000/svg" xmlns:xlink="http://www.w3.org/1999/xlink">
<g id="graph0" class="graph" transform="scale(1 1) rotate(0) translate(4 149)">
<title>models_diagram</title>
<polygon fill="none" stroke="none" points="-4,4 -4,-149 492.688,-149 492.688,4 -4,4"/>
<!-- _diagram_info -->
<g id="node1" class="node"><title>_diagram_info</title>
<text text-anchor="start" x="8" y="-130.6" font-family="Times,serif" font-size="13.00">Models diagram</text>
<text text-anchor="start" x="8" y="-117.6" font-family="Times,serif" font-size="13.00">Date: Oct 27 2016 &#45; 21:37</text>
<text text-anchor="start" x="8" y="-104.6" font-family="Times,serif" font-size="13.00">Migration version: 20161028015231</text>
<text text-anchor="start" x="8" y="-91.6" font-family="Times,serif" font-size="13.00">Generated by RailRoady 1.5.2</text>
<text text-anchor="start" x="8" y="-78.6" font-family="Times,serif" font-size="13.00">http://railroady.prestonlee.com</text>
</g>
<!-- Category -->
<g id="node2" class="node"><title>Category</title>
<ellipse fill="none" stroke="black" cx="267.688" cy="-108.5" rx="42.5456" ry="18"/>
<text text-anchor="middle" x="267.688" y="-104.3" font-family="Times,serif" font-size="14.00">Category</text>
</g>
<!-- Inventory -->
<g id="node3" class="node"><title>Inventory</title>
<ellipse fill="none" stroke="black" cx="372.688" cy="-108.5" rx="44.475" ry="18"/>
<text text-anchor="middle" x="372.688" y="-104.3" font-family="Times,serif" font-size="14.00">Inventory</text>
</g>
<!-- Work -->
<g id="node5" class="node"><title>Work</title>
<ellipse fill="none" stroke="black" cx="416.688" cy="-18" rx="29.5766" ry="18"/>
<text text-anchor="middle" x="416.688" y="-13.8" font-family="Times,serif" font-size="14.00">Work</text>
</g>
<!-- Inventory&#45;&gt;Work -->
<g id="edge1" class="edge"><title>Inventory&#45;&gt;Work</title>
<path fill="none" stroke="#0b1fc3" d="M384.911,-82.9151C391.149,-70.3669 398.705,-55.1702 404.883,-42.7437"/>
<ellipse fill="none" stroke="#0b1fc3" cx="382.952" cy="-86.8546" rx="4.00002" ry="4.00002"/>
<ellipse fill="#0b1fc3" stroke="#0b1fc3" cx="406.747" cy="-38.9947" rx="4.00002" ry="4.00002"/>
</g>
<!-- User -->
<g id="node4" class="node"><title>User</title>
<ellipse fill="none" stroke="black" cx="461.688" cy="-108.5" rx="27" ry="18"/>
<text text-anchor="middle" x="461.688" y="-104.3" font-family="Times,serif" font-size="14.00">User</text>
</g>
<!-- User&#45;&gt;Work -->
<g id="edge2" class="edge"><title>User&#45;&gt;Work</title>
<path fill="none" stroke="#c449f5" d="M449.807,-84.134C443.593,-71.9145 435.978,-56.9379 429.617,-44.4281"/>
<ellipse fill="none" stroke="#c449f5" cx="451.621" cy="-87.7022" rx="4.00002" ry="4.00002"/>
<polygon fill="#c449f5" stroke="#c449f5" points="429.574,-44.3429 429.053,-33.3894 427.308,-39.886 425.042,-35.4291 425.042,-35.4291 425.042,-35.4291 427.308,-39.886 421.03,-37.4687 429.574,-44.3429 429.574,-44.3429"/>
</g>
</g>
</svg>
